<svg width="20" height="20" viewBox="0 0 20 20" fill="none" xmlns="http://www.w3.org/2000/svg">
<g clip-path="url(#clip0_126_260)">
<path d="M10 18.549C7.67936 18.549 5.45376 17.637 3.81282 16.0137C2.17187 14.3903 1.25 12.1886 1.25 9.8928C1.25 7.59703 2.17187 5.3953 3.81282 3.77194C5.45376 2.14859 7.67936 1.2366 10 1.2366C12.3206 1.2366 14.5462 2.14859 16.1872 3.77194C17.8281 5.3953 18.75 7.59703 18.75 9.8928C18.75 12.1886 17.8281 14.3903 16.1872 16.0137C14.5462 17.637 12.3206 18.549 10 18.549ZM10 19.7856C12.6522 19.7856 15.1957 18.7433 17.0711 16.8881C18.9464 15.0328 20 12.5165 20 9.8928C20 7.26907 18.9464 4.7528 17.0711 2.89753C15.1957 1.04227 12.6522 0 10 0C7.34784 0 4.8043 1.04227 2.92893 2.89753C1.05357 4.7528 0 7.26907 0 9.8928C0 12.5165 1.05357 15.0328 2.92893 16.8881C4.8043 18.7433 7.34784 19.7856 10 19.7856Z" fill="#8CA2C0"/>
<path d="M10 4.94641C10.1658 4.94641 10.3247 5.01155 10.4419 5.12751C10.5592 5.24346 10.625 5.40073 10.625 5.56471V9.27451H14.375C14.5408 9.27451 14.6997 9.33965 14.8169 9.45561C14.9342 9.57156 15 9.72883 15 9.89281C15 10.0568 14.9342 10.2141 14.8169 10.33C14.6997 10.446 14.5408 10.5111 14.375 10.5111H10.625V14.2209C10.625 14.3849 10.5592 14.5422 10.4419 14.6581C10.3247 14.7741 10.1658 14.8392 10 14.8392C9.83424 14.8392 9.67527 14.7741 9.55806 14.6581C9.44085 14.5422 9.375 14.3849 9.375 14.2209V10.5111H5.625C5.45924 10.5111 5.30027 10.446 5.18306 10.33C5.06585 10.2141 5 10.0568 5 9.89281C5 9.72883 5.06585 9.57156 5.18306 9.45561C5.30027 9.33965 5.45924 9.27451 5.625 9.27451H9.375V5.56471C9.375 5.40073 9.44085 5.24346 9.55806 5.12751C9.67527 5.01155 9.83424 4.94641 10 4.94641Z" fill="#8CA2C0"/>
</g>
<defs>
<clipPath id="clip0_126_260">
<rect width="20" height="19.7856" fill="white"/>
</clipPath>
</defs>
</svg>
