<svg width="20" height="20" viewBox="0 0 20 20" fill="none" xmlns="http://www.w3.org/2000/svg">
<g clip-path="url(#clip0_126_324)">
<path d="M10 18.7499C7.67936 18.7499 5.45376 17.8281 3.81282 16.1871C2.17187 14.5462 1.25 12.3206 1.25 9.99994C1.25 7.67929 2.17187 5.4537 3.81282 3.81275C5.45376 2.17181 7.67936 1.24994 10 1.24994C12.3206 1.24994 14.5462 2.17181 16.1872 3.81275C17.8281 5.4537 18.75 7.67929 18.75 9.99994C18.75 12.3206 17.8281 14.5462 16.1872 16.1871C14.5462 17.8281 12.3206 18.7499 10 18.7499ZM10 19.9999C12.6522 19.9999 15.1957 18.9464 17.0711 17.071C18.9464 15.1956 20 12.6521 20 9.99994C20 7.34777 18.9464 4.80423 17.0711 2.92887C15.1957 1.05351 12.6522 -6.10352e-05 10 -6.10352e-05C7.34784 -6.10352e-05 4.8043 1.05351 2.92893 2.92887C1.05357 4.80423 0 7.34777 0 9.99994C0 12.6521 1.05357 15.1956 2.92893 17.071C4.8043 18.9464 7.34784 19.9999 10 19.9999Z" fill="#8CA2C0"/>
<path d="M5 9.99994C5 9.83418 5.06585 9.67521 5.18306 9.558C5.30027 9.44079 5.45924 9.37494 5.625 9.37494H14.375C14.5408 9.37494 14.6997 9.44079 14.8169 9.558C14.9342 9.67521 15 9.83418 15 9.99994C15 10.1657 14.9342 10.3247 14.8169 10.4419C14.6997 10.5591 14.5408 10.6249 14.375 10.6249H5.625C5.45924 10.6249 5.30027 10.5591 5.18306 10.4419C5.06585 10.3247 5 10.1657 5 9.99994Z" fill="#8CA2C0"/>
</g>
<defs>
<clipPath id="clip0_126_324">
<rect width="20" height="20" fill="white"/>
</clipPath>
</defs>
</svg>
